<svg xmlns="http://www.w3.org/2000/svg" xmlns:xlink="http://www.w3.org/1999/xlink" version="1.1" width="1000" height="1000" viewBox="0 0 1000 1000" xml:space="preserve">
<desc>Created with Fabric.js 3.5.0</desc>
<defs>
</defs>
<g transform="matrix(17.3419 0 0 17.3419 499.9993 499.9993)" id="559979">
<path style="stroke: none; stroke-width: 1; stroke-dasharray: none; stroke-linecap: butt; stroke-dashoffset: 0; stroke-linejoin: miter; stroke-miterlimit: 4; is-custom-font: none; font-file-url: none; fill: rgb(255,1,1); fill-rule: nonzero; opacity: 1;" vector-effect="non-scaling-stroke" transform=" translate(-25.2708, -36.0134)" d="M 39.5346 29.422 C 39.8489 29.9293 40.4146 30.2463 41.0431 30.2463 C 41.3574 30.2463 41.6716 30.1829 41.9859 29.9927 L 50.5968 24.7931 C 51.4767 24.2858 51.7281 23.1445 51.2253 22.3201 C 50.7225 21.4324 49.5911 21.1788 48.774 21.686 L 41.6088 25.9979 L 38.1519 19.2131 C 37.2091 18.2619 36.1406 17.3108 35.0721 16.4865 L 24.827 11.2869 C 24.1356 10.9698 23.3814 11.0332 22.8157 11.5405 L 14.2677 19.3399 C 13.5134 20.0374 13.4506 21.1788 14.142 21.8763 C 14.8334 22.6372 15.9647 22.7006 16.6561 22.0031 L 24.387 15.028 L 29.7295 17.7546 L 20.553 32.0852 L -0.377096 57.0686 C -1.19419 58.0197 -1.13133 59.5415 -0.125684 60.3659 C 0.817112 61.1902 2.32559 61.1268 3.14268 60.1122 L 23.4442 36.4605 L 32.1808 38.4896 L 26.2098 47.9376 C 25.5812 49.079 25.9584 50.474 27.0897 51.1081 C 28.0954 51.6788 29.4153 51.4251 30.1067 50.4106 L 37.7747 38.1725 C 38.2147 37.5384 38.2776 36.7141 38.0261 36.0166 C 37.7119 35.3191 37.1462 34.8118 36.392 34.685 L 29.6667 33.0998 L 35.7634 23.4615 L 39.5346 29.422 Z" stroke-linecap="round"/>
</g>
<g transform="matrix(1.3523 0 0 1.3523 781.1332 90.9279)" id="629130">
<path style="stroke: none; stroke-width: 1; stroke-dasharray: none; stroke-linecap: butt; stroke-dashoffset: 0; stroke-linejoin: miter; stroke-miterlimit: 4; is-custom-font: none; font-file-url: none; fill: rgb(255,1,1); fill-rule: nonzero; opacity: 1;" vector-effect="non-scaling-stroke" transform=" translate(-67.5, -67.5)" d="M 67.5 135 C 104.779 135 135 104.779 135 67.5 C 135 30.2208 104.779 0 67.5 0 C 30.2208 0 0 30.2208 0 67.5 C 0 104.779 30.2208 135 67.5 135 Z" stroke-linecap="round"/>
</g>
</svg>
